<?xml version="1.0" encoding="utf-8"?>
<!-- Generator: Adobe Illustrator 23.0.4, SVG Export Plug-In . SVG Version: 6.00 Build 0)  -->
<svg version="1.1" id="Capa_1" xmlns="http://www.w3.org/2000/svg" xmlns:xlink="http://www.w3.org/1999/xlink" x="0px" y="0px"
	 viewBox="0 0 512 512" style="enable-background:new 0 0 512 512;" xml:space="preserve">
<style type="text/css">
	.st0{fill:#478790;}
</style>
<g>
	<path class="st0" d="M256,279.8c34.2,0,114.7-41.2,114.7-139.9c0-13.8-0.3-27.1-1.5-39.6c-1.9-24.7-6.9-46.7-19.5-63.4
		C333.5,14,305.2,0,256,0c-49.2,0-77.5,14-93.7,36.8c-12.6,16.8-17.7,38.7-19.6,63.5c-1.1,12.6-1.5,25.9-1.5,39.6
		C141.3,238.6,221.8,279.8,256,279.8z M293.4,51.3c-3.3,8.4-5,12.7-8.4,21.1c-21.6-6.1-36.6-6.1-58.2,0c-3.3-8.4-5-12.7-8.4-21.1
		C245.5,43.1,266.5,43.1,293.4,51.3z M158.4,118.5c1.3,2.9,6.9,14,15.6,15c10,1.2,26.6-35.4,82-35.5c55.4,0.1,72,36.7,82,35.5
		c8.7-1,14.3-12.2,15.6-15c0.3,7.1,0.4,14.3,0.4,21.4c0,48.2-21.3,78.1-39.2,94.7c-22.5,20.9-47.5,28.5-58.8,28.5
		c-11.3,0-36.3-7.6-58.8-28.5C179.3,218,158,188.1,158,139.9C158,132.8,158.1,125.6,158.4,118.5z"/>
	<path class="st0" d="M469,423.3c-5.9-36.4-17.9-83.3-42.1-100c-16.5-11.4-74.1-42.2-98.7-55.3l-0.4-0.2c-2.8-1.5-6.2-1.2-8.8,0.8
		c-12.9,10.1-27,16.9-42,20.3c-2.6,0.6-4.8,2.5-5.8,5L256,333.9l-15.2-40.1c-1-2.5-3.1-4.4-5.8-5c-15-3.3-29.1-10.1-42-20.3
		c-2.5-2-5.9-2.3-8.8-0.8c-24.3,13-82.6,44.4-99.1,55.5c-27.8,18.8-40,86.6-42.2,100c-0.2,1.3-0.1,2.7,0.4,4
		c0.6,1.7,9.8,25.5,55.8,44.7c2.7-3.3,6.2-5.9,10.2-7.3c-4.9-1.8-9.2-5.2-12-9.8c-4.1-6.9-4.2-15.5-0.4-22.5
		c11.8-21.6,34.4-35.1,59-35.1c22.9,0,43.7,11.4,56,29.9h87.9c2.4-3.6,5.2-7,8.3-10.1c12.7-12.7,29.6-19.8,47.6-19.8h0h0
		c24.6,0,47.2,13.4,59.1,34.9c3.8,7,3.7,15.6-0.4,22.5c-2.7,4.6-7,8.1-11.9,9.8c4,1.4,7.6,4,10.3,7.4c45.9-19.2,55.1-43,55.7-44.6
		C469,426,469.2,424.6,469,423.3z"/>
	<path class="st0" d="M395,483L395,483l-42.3,0.1c-0.8-1.8-2.2-6.7-2.2-18.5c0-11.8,1.4-16.8,2.2-18.6l42.3-0.1c1,0,1.9-0.5,2.5-1.4
		c0.5-0.9,0.5-1.9,0-2.8c-8.3-15.2-24.3-24.6-41.7-24.6c-12.7,0-24.6,5-33.5,13.9c-4.6,4.6-8.1,10-10.5,15.9H200.2
		c-7-17.5-24.1-29.9-44.1-29.9c-17.3,0-33.3,9.5-41.6,24.7c-0.5,0.9-0.5,2,0,2.8c0.5,0.9,1.4,1.4,2.5,1.4h0l42.3-0.1
		c0.8,1.8,2.2,6.7,2.2,18.5c0,11.8-1.4,16.8-2.2,18.5l-42.3,0.1c-1,0-1.9,0.5-2.5,1.4c-0.5,0.9-0.5,1.9,0,2.8
		c8.3,15.2,24.3,24.6,41.6,24.6h0.1c12.7,0,24.6-5,33.5-14c4.6-4.6,8.1-10,10.5-15.9h111.6c7,17.5,24.1,29.9,44,29.9
		c0,0,0.1,0,0.1,0c17.3,0,33.3-9.5,41.6-24.7c0.5-0.9,0.5-2,0-2.8C397,483.6,396,483,395,483z"/>
</g>
</svg>
