<?xml version="1.0" encoding="utf-8"?>
<!-- Generator: Adobe Illustrator 23.0.4, SVG Export Plug-In . SVG Version: 6.00 Build 0)  -->
<svg version="1.1" id="Capa_1" xmlns="http://www.w3.org/2000/svg" xmlns:xlink="http://www.w3.org/1999/xlink" x="0px" y="0px"
	 viewBox="0 0 512 512" style="enable-background:new 0 0 512 512;" xml:space="preserve">
<style type="text/css">
	.st0{fill:#478790;}
</style>
<path class="st0" d="M311.3,224c-15.4-25.8-32.2-50.7-50.3-74.6c-1.8-2.4-3.5-4.6-5-6.6c-20,25.9-38.5,53-55.3,81.1
	c-11.6,18.2-20.4,38.1-25.9,59c-0.7,3.1-1,6.4-1.1,9.6c0,45.4,36.8,82.3,82.3,82.3s82.3-36.8,82.3-82.3
	C338.3,282.5,333.6,262.5,311.3,224L311.3,224z M256,356.6c-5,0-9.1-4.1-9.1-9.1s4.1-9.1,9.1-9.1c25.2,0,45.7-20.5,45.7-45.7
	c0-0.1-0.7-13.4-22-50.1c-1.9-2.8-2-6.5-0.4-9.4c1.6-3,4.8-4.8,8.2-4.7c3.4,0.1,6.5,2,8,5c22.8,39.1,24.5,55.3,24.5,59.3
	C320,327.9,291.3,356.5,256,356.6z"/>
<path class="st0" d="M448,457.1H64c-15.1,0-27.4,12.3-27.4,27.4c0,15.1,12.3,27.4,27.4,27.4h384c15.1,0,27.4-12.3,27.4-27.4
	C475.4,469.4,463.1,457.1,448,457.1z"/>
<path class="st0" d="M64,54.9h384c15.1,0,27.4-12.3,27.4-27.4S463.1,0,448,0H64C48.9,0,36.6,12.3,36.6,27.4S48.9,54.9,64,54.9z"/>
<path class="st0" d="M332.1,358.2c-1.1,1.3-2.3,2.6-3.5,3.8c-1,1-2,2-3,3c-1.2,1.2-2.5,2.3-3.8,3.5c-1.1,0.9-2.1,1.8-3.3,2.7
	c-1.4,1.1-2.7,2.1-4.2,3.1c-1.2,0.8-2.3,1.7-3.5,2.4c-1.5,0.9-3,1.8-4.5,2.7c-1.2,0.7-2.4,1.4-3.7,2.1c-1.6,0.8-3.2,1.6-4.8,2.3
	c-1.3,0.6-2.5,1.2-3.8,1.7c-1.7,0.7-3.4,1.3-5.2,1.9c-1.3,0.5-2.5,0.9-3.9,1.3c-1.8,0.6-3.7,1-5.6,1.5c-1.3,0.3-2.5,0.7-3.8,0.9
	c-2.1,0.4-4.3,0.7-6.5,1c-1.1,0.1-2.2,0.4-3.3,0.5c-3.3,0.3-6.6,0.5-10,0.5c-3.4,0-6.7-0.2-10-0.5c-1.1-0.1-2.2-0.3-3.3-0.5
	c-2.2-0.3-4.3-0.6-6.5-1c-1.3-0.3-2.5-0.6-3.8-0.9c-1.9-0.5-3.8-0.9-5.6-1.5c-1.3-0.4-2.6-0.9-3.9-1.3c-1.7-0.6-3.5-1.2-5.2-1.9
	c-1.3-0.5-2.5-1.1-3.8-1.7c-1.6-0.7-3.2-1.5-4.8-2.3c-1.3-0.7-2.5-1.4-3.7-2.1c-1.5-0.9-3-1.8-4.5-2.7c-1.2-0.8-2.3-1.6-3.5-2.4
	c-1.4-1-2.8-2-4.2-3.1c-1.1-0.9-2.2-1.8-3.3-2.7c-1.3-1.1-2.6-2.3-3.8-3.5c-1-1-2-2-3-3c-1.2-1.2-2.3-2.5-3.5-3.8
	c-0.9-1.1-1.8-2.2-2.7-3.3c-1.1-1.4-2.1-2.7-3.1-4.1c-0.8-1.2-1.6-2.3-2.4-3.5c-0.9-1.5-1.8-2.9-2.7-4.5c-0.7-1.2-1.4-2.4-2.1-3.7
	c-0.8-1.6-1.6-3.2-2.3-4.8c-0.6-1.3-1.2-2.5-1.7-3.8c-0.7-1.7-1.3-3.4-1.8-5.1c-0.5-1.3-0.9-2.6-1.3-3.9c-0.5-1.8-1-3.7-1.4-5.5
	c-0.3-1.3-0.7-2.6-0.9-4c-0.4-1.9-0.6-3.9-0.9-5.9c-0.2-1.3-0.4-2.5-0.5-3.8c0-0.2-0.1-0.4-0.1-0.6H73.1v137.2h365.7V301.7h-82.7
	c0,0.2-0.1,0.4-0.1,0.6c-0.1,1.3-0.4,2.5-0.5,3.8c-0.3,2-0.5,4-0.9,5.9c-0.3,1.3-0.6,2.6-0.9,4c-0.4,1.8-0.9,3.7-1.4,5.5
	c-0.4,1.3-0.9,2.6-1.3,4c-0.6,1.7-1.2,3.4-1.8,5.1c-0.5,1.3-1.1,2.6-1.7,3.8c-0.7,1.6-1.5,3.2-2.3,4.8c-0.7,1.3-1.4,2.5-2.1,3.7
	c-0.9,1.5-1.8,3-2.7,4.5c-0.8,1.2-1.6,2.4-2.4,3.5c-1,1.4-2,2.7-3.1,4.1C333.9,356,333,357.1,332.1,358.2z"/>
<path class="st0" d="M64,283.4h92.2c0.1-0.5,0.3-1.1,0.4-1.7c0.4-2.6,1.1-5.3,1.8-8.2c0.2-0.9,0.5-1.8,0.7-2.8
	c1.1-3.7,2.3-7.5,3.9-11.6c0.2-0.4,0.4-0.9,0.6-1.4c1.4-3.7,3.1-7.6,4.9-11.6c0.6-1.3,1.2-2.5,1.8-3.8c1.8-3.9,3.8-7.9,6.1-12
	c0.3-0.7,0.6-1.2,1-1.9H64c-15.1,0-27.4,12.3-27.4,27.4C36.6,271.1,48.9,283.4,64,283.4z"/>
<path class="st0" d="M448,228.6H334.8c0.3,0.6,0.6,1.1,0.9,1.7c2.2,4.2,4.3,8.3,6.2,12.2c0.6,1.3,1.2,2.5,1.7,3.7
	c1.8,4,3.5,7.9,5,11.6c0.2,0.4,0.4,0.9,0.6,1.4c1.6,4.1,2.8,7.9,3.9,11.6c0.3,0.9,0.5,1.8,0.7,2.7c0.8,2.8,1.3,5.6,1.8,8.2
	c0.1,0.5,0.3,1.2,0.4,1.7H448c15.1,0,27.4-12.3,27.4-27.4C475.4,240.9,463.1,228.6,448,228.6z"/>
<path class="st0" d="M438.9,73.1H73.1v137.1h114.5c0.4-0.8,0.9-1.5,1.4-2.2c0.8-1.3,1.6-2.6,2.3-3.9l2.8-4.6
	c0.8-1.2,1.6-2.5,2.4-3.7c1-1.6,2-3.1,3-4.6c0.8-1.2,1.5-2.4,2.3-3.6c1-1.5,2-3,3-4.5c0.8-1.2,1.5-2.3,2.3-3.5l2.9-4.4l2.3-3.3
	l2.9-4.2c0.7-1.1,1.5-2.1,2.2-3.1c0.9-1.4,1.9-2.7,2.8-4l2.2-3.1l2.6-3.6l2.1-2.9c0.8-1.1,1.6-2.1,2.3-3.2l2.1-2.8l2.1-2.7l2-2.7
	l1.6-2.2l2.1-2.7l1.1-1.5l2-2.6l1-1.3l1.6-2.1l0.4-0.6c2-2.5,3.3-4.1,3.5-4.5c1.8-2.1,4.4-3.2,7.1-3.2c2.7,0,5.3,1.2,7.1,3.2
	c0.3,0.3,1.5,1.9,3.5,4.5l0.4,0.6l1.5,1.9l1.1,1.4l2.1,2.7l0.9,1.2l2.2,3c0.5,0.6,0.9,1.2,1.4,1.9c0.7,0.9,1.4,1.9,2.1,2.9l1.9,2.6
	l2.2,3.1c0.7,1,1.4,1.9,2.1,2.9c0.7,1,1.6,2.2,2.4,3.3c0.8,1.1,1.5,2.1,2.3,3.2l2.5,3.5l2.5,3.5c0.8,1.2,1.7,2.4,2.5,3.7
	c0.8,1.3,1.7,2.5,2.6,3.7c0.9,1.3,1.7,2.5,2.6,3.8l2.6,3.9l2.7,4l2.6,3.9c0.9,1.4,1.8,2.8,2.7,4.2c0.8,1.3,1.7,2.6,2.5,3.9
	c0.9,1.5,1.8,2.9,2.7,4.4l2.4,3.9c0.9,1.5,1.8,3.1,2.8,4.6c0.4,0.6,0.8,1.2,1.1,1.8h114.5V73.1z"/>
</svg>
