<?xml version="1.0" encoding="utf-8"?>
<!-- Generator: Adobe Illustrator 23.0.4, SVG Export Plug-In . SVG Version: 6.00 Build 0)  -->
<svg version="1.1" id="Capa_1" xmlns="http://www.w3.org/2000/svg" xmlns:xlink="http://www.w3.org/1999/xlink" x="0px" y="0px"
	 viewBox="0 0 32 32" style="enable-background:new 0 0 32 32;" xml:space="preserve">
<style type="text/css">
	.st0{fill:#74B42B;}
</style>
<title></title>
<g id="Battery">
	<path class="st0" d="M23,6h-2V5c0-1.7-1.3-3-3-3h-4c-1.7,0-3,1.3-3,3v1H9C7.3,6,6,7.3,6,9v18c0,1.7,1.3,3,3,3h14c1.7,0,3-1.3,3-3V9
		C26,7.3,24.7,6,23,6z M13,5c0-0.6,0.4-1,1-1h4c0.6,0,1,0.4,1,1v1h-6V5z M24,27c0,0.6-0.4,1-1,1H9c-0.6,0-1-0.4-1-1V9
		c0-0.6,0.4-1,1-1h14c0.6,0,1,0.4,1,1V27z"/>
	<path class="st0" d="M19,17h-4.2l2.1-3.5c0.2-0.5,0-1.1-0.5-1.3c-0.4-0.2-0.9,0-1.2,0.3l-3,5c-0.3,0.5-0.1,1.1,0.4,1.4
		C12.7,19,12.8,19,13,19h4.2l-2.1,3.5c-0.2,0.5,0,1.1,0.5,1.3c0.4,0.2,0.9,0,1.2-0.3l3-5c0.3-0.5,0.1-1.1-0.4-1.4
		C19.3,17,19.2,17,19,17z"/>
</g>
</svg>
