<?xml version="1.0" encoding="utf-8"?>
<!-- Generator: Adobe Illustrator 23.0.4, SVG Export Plug-In . SVG Version: 6.00 Build 0)  -->
<svg version="1.1" id="Capa_1" xmlns="http://www.w3.org/2000/svg" xmlns:xlink="http://www.w3.org/1999/xlink" x="0px" y="0px"
	 viewBox="0 0 512 512" style="enable-background:new 0 0 512 512;" xml:space="preserve">
<style type="text/css">
	.st0{fill:#478790;}
</style>
<g>
	<g>
		<g>
			<path class="st0" d="M437,75C387,25,321.5,0,256,0S124.9,25,75,75c-100,100-100,262.1,0,362c50,50,115.5,75,181,75
				s131.1-25,181-75C537,337.1,537,174.9,437,75z M256,32c34.9,0,68.6,8.2,99,23.2l-49.4,49.4C289.5,99.3,272.8,96,256,96
				c-15.3,0-30.4,2.9-45.2,7.3l-50-49.9C190.3,39.6,222.5,32,256,32z M55.2,355c-15-30.4-23.2-64.1-23.2-99
				c0-33.5,7.5-65.7,21.4-95.1l50,49.9c-9.2,31-8.7,64,1.3,94.8L55.2,355z M256,480c-32,0-62.9-6.9-91.3-19.6l50.4-50.4
				c13.4,3.6,27.1,6,40.9,6c15.3,0,30.4-2.9,45.2-7.3l50,50C321.7,472.4,289.5,480,256,480z M346.5,346.5
				C322.3,370.7,290.2,384,256,384s-66.3-13.3-90.5-37.5C141.3,322.3,128,290.2,128,256s13.3-66.3,37.5-90.5
				c24.2-24.2,56.3-37.5,90.5-37.5c34.1,0,66.3,13.3,90.5,37.5c24.2,24.2,37.5,56.3,37.5,90.5S370.7,322.3,346.5,346.5z
				 M408.7,301.2c8.3-28.1,8.7-57.8,1.3-86.1l50.3-50.3c26.3,59.2,25.7,127.5-1.8,186.3L408.7,301.2z"/>
		</g>
	</g>
</g>
</svg>
