<?xml version="1.0" encoding="utf-8"?>
<!-- Generator: Adobe Illustrator 23.0.4, SVG Export Plug-In . SVG Version: 6.00 Build 0)  -->
<svg version="1.1" id="Capa_1" xmlns="http://www.w3.org/2000/svg" xmlns:xlink="http://www.w3.org/1999/xlink" x="0px" y="0px"
	 viewBox="0 0 512 512" style="enable-background:new 0 0 512 512;" xml:space="preserve">
<style type="text/css">
	.st0{fill:#478790;}
</style>
<g>
	<g>
		<g>
			<path class="st0" d="M100.6,416v-46.5l-87.6,87.6h46.5C82.1,457.1,100.5,438.7,100.6,416z"/>
			<path class="st0" d="M155.4,416v-82.3c0-32.8,26.6-59.4,59.4-59.4h59.4v-36.6H0v36.6h59.4c32.8,0,59.4,26.6,59.4,59.4V416
				c0,32.8-26.6,59.4-59.4,59.4H0V512h274.3v-36.6h-59.4C182.1,475.4,155.5,448.8,155.4,416z"/>
			<polygon class="st0" points="499.1,0 232.4,0 12.9,219.4 279.6,219.4 			"/>
			<polygon class="st0" points="292.6,232.4 292.6,261.4 391.2,162.7 512,41.9 512,12.9 			"/>
			<polygon class="st0" points="292.6,469.9 292.6,498.3 459.7,322.8 512,270.5 512,241.5 472.8,280.8 			"/>
			<path class="st0" d="M499.1,228.6h-46.5c-0.8-0.1-1.5-0.2-2.3-0.5c-0.7,0.3-1.5,0.4-2.3,0.5c-25.5,0-48.1-16.3-56.3-40.5
				L289.9,289.9c-1.7,1.7-4,2.7-6.5,2.7h-68.6c-22.7,0-41.1,18.4-41.1,41.1V416c0,22.7,18.4,41.1,41.1,41.1h64.7L459.7,268
				L499.1,228.6z M216.8,426.6c-2.6,2.6-6.6,3.4-10,2s-5.7-4.8-5.6-8.5c0-5,4.1-9.1,9.1-9.1c5,0,9.1,4.1,9.1,9.1
				C219.5,422.5,218.5,424.9,216.8,426.6z M253.5,388.1l-9.1,9.6c-3.5,3.7-9.3,3.8-12.9,0.3c-3.7-3.5-3.8-9.3-0.3-12.9l9.1-9.6
				c2.3-2.4,5.6-3.3,8.8-2.6c3.2,0.8,5.7,3.2,6.6,6.3C256.6,382.4,255.7,385.8,253.5,388.1z M290,349.8l-9.1,9.6
				c-3.5,3.7-9.3,3.8-12.9,0.3c-3.7-3.5-3.8-9.3-0.3-12.9l9.1-9.6c3.5-3.7,9.3-3.8,12.9-0.3C293.4,340.4,293.5,346.2,290,349.8z
				 M326.6,311.5l-9.1,9.6c-3.5,3.7-9.3,3.8-12.9,0.3c-3.7-3.5-3.8-9.3-0.3-12.9l9.1-9.6c3.5-3.7,9.3-3.8,12.9-0.3
				C330,302.1,330.1,307.9,326.6,311.5z M363.2,273.2l-9.1,9.6c-2.3,2.4-5.6,3.3-8.8,2.6c-3.2-0.8-5.7-3.2-6.6-6.3
				c-0.9-3.1-0.1-6.5,2.2-8.9l9.1-9.6c3.5-3.7,9.3-3.8,12.9-0.3C366.5,263.8,366.7,269.5,363.2,273.2z M390.5,244.6
				c-1.7,1.8-4,2.7-6.5,2.7s-4.8-1-6.5-2.7c-1.7-1.7-2.7-4-2.7-6.4c0-3.7,2.2-7.1,5.6-8.5s7.4-0.6,10,2c1.7,1.7,2.6,4.1,2.7,6.5
				C393.2,240.6,392.2,242.9,390.5,244.6z"/>
		</g>
	</g>
</g>
</svg>
