<?xml version="1.0" encoding="utf-8"?>
<!-- Generator: Adobe Illustrator 23.0.4, SVG Export Plug-In . SVG Version: 6.00 Build 0)  -->
<svg version="1.1" id="Capa_1" xmlns="http://www.w3.org/2000/svg" xmlns:xlink="http://www.w3.org/1999/xlink" x="0px" y="0px"
	 viewBox="0 0 512 512" style="enable-background:new 0 0 512 512;" xml:space="preserve">
<style type="text/css">
	.st0{fill:#478790;}
</style>
<g>
	<g>
		<g>
			<polygon class="st0" points="512,246.9 512,150.1 415.2,246.9 			"/>
			<polygon class="st0" points="246.9,512 246.9,415.2 150.1,512 			"/>
			<path class="st0" d="M484.6,0H45.7C20.5,0,0,20.5,0,45.7v438.9C0,499.7,12.3,512,27.4,512h85.4c7.3,0,14.3-2.9,19.4-8
				l117.3-117.3l0,0l137.1-137.1l0,0L504,132.2c5.1-5.2,8-12.1,8-19.4V27.4C512,12.3,499.7,0,484.6,0z M82.3,475.4
				c-25.2,0-45.7-20.5-45.7-45.7S57,384,82.3,384s45.7,20.5,45.7,45.7C128,454.9,107.5,475.4,82.3,475.4z M82.3,128
				c-25.2,0-45.7-20.5-45.7-45.7S57,36.6,82.3,36.6S128,57,128,82.3C128,107.5,107.5,128,82.3,128z M429.7,128
				c-25.2,0-45.7-20.5-45.7-45.7s20.5-45.7,45.7-45.7s45.7,20.5,45.7,45.7C475.4,107.5,454.9,128,429.7,128z"/>
		</g>
	</g>
</g>
</svg>
