<?xml version="1.0" encoding="utf-8"?>
<!-- Generator: Adobe Illustrator 23.0.4, SVG Export Plug-In . SVG Version: 6.00 Build 0)  -->
<svg version="1.1" id="Capa_1" xmlns="http://www.w3.org/2000/svg" xmlns:xlink="http://www.w3.org/1999/xlink" x="0px" y="0px"
	 viewBox="0 0 512 512" style="enable-background:new 0 0 512 512;" xml:space="preserve">
<style type="text/css">
	.st0{fill:#478790;}
</style>
<g>
	<g id="Layer_1_65_">
		<g>
			<path class="st0" d="M511,219.2c-1.8-3.8-5.6-6.2-9.8-6.2h-31.9C449.1,103,352.5,19.3,236.7,19.3C106.2,19.3,0,125.5,0,256
				s106.2,236.7,236.7,236.7c84.2,0,162.8-45.3,205-118.3c5.9-10.3,2.4-23.4-7.9-29.4c-10.3-6-23.4-2.5-29.4,7.8
				c-34.6,59.7-98.8,96.8-167.7,96.8C129.9,449.6,43,362.8,43,256c0-106.8,86.9-193.6,193.6-193.6c92,0,169,64.5,188.6,150.6h-31.6
				c-4.2,0-8,2.4-9.8,6.2c-1.8,3.8-1.2,8.2,1.5,11.4l53.8,64.5c2,2.5,5.1,3.9,8.3,3.9c3.2,0,6.2-1.4,8.3-3.9l53.8-64.5
				C512.2,227.4,512.8,223,511,219.2z"/>
			<path class="st0" d="M236.7,73.1c-11.9,0-21.5,9.6-21.5,21.5v130.5C205.4,232,199,243.2,199,256c0,20.8,16.9,37.7,37.7,37.7
				c5.7,0,11-1.4,15.9-3.6l74.8,43.2c3.4,2,7.1,2.9,10.7,2.9c7.4,0,14.7-3.9,18.6-10.8c5.9-10.3,2.4-23.4-7.9-29.4L274,252.7
				c-1-11.4-6.9-21.3-15.8-27.5V94.6C258.2,82.8,248.5,73.1,236.7,73.1z M236.7,272.1c-8.9,0-16.1-7.2-16.1-16.1
				c0-8.9,7.2-16.1,16.1-16.1c8.9,0,16.1,7.2,16.1,16.1C252.8,264.9,245.6,272.1,236.7,272.1z"/>
		</g>
	</g>
</g>
</svg>
