<?xml version="1.0" encoding="utf-8"?>
<!-- Generator: Adobe Illustrator 23.0.4, SVG Export Plug-In . SVG Version: 6.00 Build 0)  -->
<svg version="1.1" id="Layer_1" xmlns="http://www.w3.org/2000/svg" xmlns:xlink="http://www.w3.org/1999/xlink" x="0px" y="0px"
	 viewBox="0 0 512 512" style="enable-background:new 0 0 512 512;" xml:space="preserve">
<style type="text/css">
	.st0{fill:#478790;}
</style>
<g>
	<g>
		<g>
			<path class="st0" d="M486.6,425c-51.2-26.9-90.4-41.9-125.1-47.8l3.8-5.2c1.5-2,2-4.6,1.4-7.1l-7.9-31.7
				c21.2-29.9,33.8-67.3,33.8-102.8v-34.1h8.5h17.1c4.7,0,8.5-3.8,8.5-8.5c0-4.7-3.8-8.5-8.5-8.5h-8.5v-8.5
				c0-23.8-5.6-46.2-15.6-66.1l-76.6,14.7c-0.5,0.1-1.1,0.2-1.6,0.2c-2.2,0-4.4-0.9-6-2.5c-2-2-2.9-4.9-2.4-7.6l14-73.5
				c-7.2-3.3-14.8-6.1-22.7-8.3v-1.8c0-14.2-11.5-25.7-25.7-25.7h-33.9c-14.2,0-25.7,11.5-25.7,25.7v1.8c-7.9,2.2-15.4,5.1-22.7,8.3
				l14,73.5c0.5,2.8-0.4,5.6-2.4,7.6c-1.6,1.6-3.8,2.5-6,2.5c-0.5,0-1.1-0.1-1.6-0.2L118,104.6c-10,19.9-15.6,42.3-15.6,66.1v8.5
				h-8.5c-4.7,0-8.5,3.8-8.5,8.5c0,4.7,3.8,8.5,8.5,8.5h17.1h8.5v34.1c0,35.5,12.6,72.8,33.8,102.8l-7.9,31.7
				c-0.6,2.4-0.1,5,1.4,7.1l3.8,5.2C115.7,383.1,76.6,398,25.4,425C9.7,433.2,0,449.3,0,467v36.5c0,4.7,3.8,8.5,8.5,8.5h204.8h0h3.2
				c0,0,0,0,0,0l78.5-0.1c0.1,0,0.2,0.1,0.4,0.1h208c4.7,0,8.5-3.8,8.5-8.5V467C512,449.3,502.3,433.2,486.6,425z M136.5,230.4
				v-34.1h238.9v34.1c0,38.4-13.6,72.2-33.7,97.6c-0.3,0.3-0.7,0.5-0.9,0.8c-2.9,3.8-6,7.3-9.1,10.6c0,0,0,0-0.1,0.1
				c-2.1,2.2-4.2,4.1-6.4,6.2c-20.9,18.8-45.6,29.8-69.3,29.8c-23.7,0-48.4-11-69.3-29.8c-2.1-2-4.3-4-6.4-6.2c0,0,0,0-0.1-0.1
				c-3.1-3.3-6.2-6.9-9.1-10.6c-0.3-0.3-0.6-0.5-0.9-0.8C150.1,302.6,136.5,268.8,136.5,230.4z M162.8,365.1l3.8-15.3
				c0,0,0,0,0.1,0.1c20.6,22.4,46.9,38.2,76.4,41.8c0,0,0,0,0.1,0l-23.2,52.1L162.8,365.1z M223.8,494.9l5.1-25.6h54.3l2.2,10.8
				l2.9,14.7L223.8,494.9z M291.9,443.8l-23.2-52.1c0,0,0,0,0.1,0c29.6-3.6,55.8-19.4,76.4-41.8c0,0,0,0,0.1-0.1l3.8,15.3
				L291.9,443.8z"/>
			<path class="st0" d="M337.1,44.1l-10.7,56l58.4-11.2C372.7,70.9,356.5,55.7,337.1,44.1z"/>
			<path class="st0" d="M174.9,44.1c-19.4,11.5-35.6,26.8-47.7,44.8l58.4,11.2L174.9,44.1z"/>
		</g>
	</g>
</g>
</svg>
