<?xml version="1.0" encoding="utf-8"?>
<!-- Generator: Adobe Illustrator 23.0.4, SVG Export Plug-In . SVG Version: 6.00 Build 0)  -->
<svg version="1.1" id="Capa_1" xmlns="http://www.w3.org/2000/svg" xmlns:xlink="http://www.w3.org/1999/xlink" x="0px" y="0px"
	 viewBox="0 0 512 512" style="enable-background:new 0 0 512 512;" xml:space="preserve">
<style type="text/css">
	.st0{fill:#478790;}
</style>
<g>
	<g>
		<path class="st0" d="M256,270.1c-30.1,0-55.4,24.4-55.4,55.4c0,30.5,24.9,55.4,55.4,55.4s55.4-24.9,55.4-55.4
			C311.4,294.5,286.2,270.1,256,270.1z"/>
	</g>
</g>
<g>
	<g>
		<path class="st0" d="M268.6,38.8c-5.9-9.1-19.3-9.1-25.2,0c-1.8,2.7-42.8,67-42.8,147.4c0,24.8,1.9,48.8,5.3,70.1
			c30-21.7,70.4-21.6,100.2,0c3.4-21.3,5.3-45.3,5.3-70.1C311.4,105.8,270.3,41.5,268.6,38.8z"/>
	</g>
</g>
<g>
	<g>
		<path class="st0" d="M171,316.7c-21.2,8-43.7,19.1-63.2,30.4C38.2,387.3,3.1,455.1,1.6,457.9c-4.9,9.7,1.8,21.2,12.6,21.8
			c30,1.7,94.6-5.2,149-36.6c21.5-12.4,41.3-26,58-39.6C187.8,388.5,167.1,353.5,171,316.7z"/>
	</g>
</g>
<g>
	<g>
		<path class="st0" d="M510.4,457.9c-1.5-2.9-36.6-70.6-106.2-110.8c-21.4-12.4-43.1-22.8-63.2-30.4c3.9,36.9-16.8,71.9-50.2,86.8
			c17.9,14.6,38.2,28.2,58,39.6c49.1,28.4,112,38.7,149,36.6C508.6,479.2,515.3,467.7,510.4,457.9z"/>
	</g>
</g>
</svg>
