<?xml version="1.0" encoding="utf-8"?>
<!-- Generator: Adobe Illustrator 23.0.4, SVG Export Plug-In . SVG Version: 6.00 Build 0)  -->
<svg version="1.1" id="Capa_1" xmlns="http://www.w3.org/2000/svg" xmlns:xlink="http://www.w3.org/1999/xlink" x="0px" y="0px"
	 viewBox="0 0 512 512" style="enable-background:new 0 0 512 512;" xml:space="preserve">
<style type="text/css">
	.st0{fill:#478790;}
</style>
<path class="st0" d="M208,80h96c13.3,0,24-10.7,24-24s-10.7-24-24-24h-96c-13.3,0-24,10.7-24,24S194.7,80,208,80z"/>
<path class="st0" d="M440,374.6c0-23.2-7.8-45.8-22.1-64.1l-29.8-38.1c-2.4-0.3-4.9-0.5-7.3-0.5c-13.7-0.1-26.8,5-36.8,14.4
	c-26.5,23.5-66.4,23.5-92.9,0c-20.7-19.1-52.6-19.1-73.4,0c-12.7,11.5-29.3,17.8-46.5,17.6c-9.5,0.1-18.9-1.8-27.6-5.7l-9.5,12.2
	C79.8,328.8,72,351.4,72,374.6V392c0.1,48.6,39.4,87.9,88,88h192c48.6-0.1,87.9-39.4,88-88V374.6z M160,432h-16v-16h16V432z
	 M176,336h-16v-16h16V336z M224,392h-16v-16h16V392z M256,448h-16v-16h16V448z M280,336h-16v-16h16V336z M312,416h-16v-16h16V416z
	 M352,360h-16v-16h16V360z M376,456h-16v-16h16V456z"/>
<path class="st0" d="M131.2,288c13.6,0.1,26.8-5,36.7-14.3c26.5-23.5,66.4-23.5,92.9,0c20.7,19.1,52.7,19.1,73.4,0
	c11.4-10.2,25.9-16.3,41.2-17.4L318.1,183c-14.3-18.3-22.1-40.9-22.1-64.1V96h-80v22.9c0,23.2-7.8,45.8-22.1,64.1l-80.1,102.3
	C119.4,287.2,125.3,288.1,131.2,288z M272,208h16v16h-16V208z M232,184h16v16h-16V184z M200,224h16v16h-16V224z"/>
</svg>
