<?xml version="1.0" encoding="utf-8"?>
<!-- Generator: Adobe Illustrator 23.0.4, SVG Export Plug-In . SVG Version: 6.00 Build 0)  -->
<svg version="1.1" id="Capa_1" xmlns="http://www.w3.org/2000/svg" xmlns:xlink="http://www.w3.org/1999/xlink" x="0px" y="0px"
	 viewBox="0 0 512 512" style="enable-background:new 0 0 512 512;" xml:space="preserve">
<style type="text/css">
	.st0{fill:#478790;}
</style>
<g>
	<g>
		<path class="st0" d="M268,337.6c5.8,0,10.5-4.7,10.5-10.5v-4.9c0-5.8-4.7-10.5-10.5-10.5H92c-5.8,0-10.5,4.7-10.5,10.5v4.9
			c0,5.8,4.7,10.5,10.5,10.5H268z"/>
		<path class="st0" d="M378.6,120.3c-16.6-16.6-35.8-29.5-57.3-38.6l-0.1-0.1c-7-3-15.1-0.4-19.2,6l-12.2,19c-3.1-1.1-6.3-1.7-9.7-2
			c-1-0.1-2.1-0.1-3.1-0.1c-2.8,0-5.6,0.3-8.3,0.9l21.6-33.6l6.7-10.4c4.7-7.3,2.6-17.1-4.8-21.8L234.4,2.5
			c-2.6-1.7-5.6-2.5-8.5-2.5c-5.2,0-10.3,2.6-13.3,7.3L112.3,163.5c-4.7,7.3-2.6,17.1,4.8,21.8l10.9,7l-5,7.7l-5,7.7l-3.1,4.8
			c-4.7,7.3-2.6,17.1,4.8,21.8l9.4,6c7.3,4.7,17.1,2.6,21.8-4.8l3.1-4.8l5-7.7l5-7.7l10.8,6.9c2.6,1.7,5.6,2.5,8.5,2.5
			c5.2,0,10.3-2.6,13.3-7.3l41.1-64.2c0.8,3.8,2.2,7.4,4.1,10.7c1.6,2.9,3.6,5.6,5.9,8c7.6,8,18.4,13,30.4,12.6
			c21.1-0.6,38.3-17.8,38.9-39c0.2-5.2-0.7-10.1-2.3-14.7c11,6,21.2,13.7,30.4,22.8c25.1,25.1,38.9,58.4,38.9,93.9
			c0,35.5-13.8,68.8-38.9,93.9c-15.6,15.6-34.4,26.8-54.9,33.1c-1.5,0.5-3.1,0.7-4.7,0.7h-51.9c-8.8,0-15.8-7.1-15.8-15.8v-3.5
			h-75.5v19.3v25v26.8c1.6-0.1,3.3-0.2,5-0.2h103.9H270h90.3h12.4h1.2c18-3.2,31.8-19,31.8-38c0-11.7-5.2-22.2-13.4-29.3
			c10.1-12.8,18.5-26.8,24.9-41.9c9.4-22.2,14.2-45.9,14.2-70.2c0-24.3-4.7-47.9-14.2-70.2C408.1,156.1,395.1,136.8,378.6,120.3z
			 M276.9,159c-6.7,0-12.3-4.5-13.9-10.8c-0.3-1.2-0.5-2.4-0.5-3.7c0-7.1,5.2-13,12-14.2c0.8-0.2,1.6-0.2,2.5-0.2
			c8,0,14.4,6.4,14.4,14.4C291.3,152.6,284.8,159,276.9,159z M372.8,401.3c-1.7,0.8-3.6,1.2-5.6,1.2c-5.3,0-9.9-3.1-12.1-7.5
			c-0.9-1.8-1.4-3.8-1.4-6c0-7.4,6-13.5,13.5-13.5c2,0,3.9,0.4,5.6,1.2c0.9,0.4,1.8,0.9,2.6,1.5c3.2,2.5,5.3,6.3,5.3,10.7
			C380.7,394.5,377.4,399.1,372.8,401.3z"/>
		<path class="st0" d="M142.2,445.6c-34.5,2.5-61.6,31.3-61.6,66.4h276.3c8.8,0,15.8-7.1,15.8-15.8v-25.4v-25.4H147.2
			C145.5,445.4,143.9,445.5,142.2,445.6z"/>
	</g>
</g>
</svg>
