<?xml version="1.0" encoding="utf-8"?>
<!-- Generator: Adobe Illustrator 23.0.4, SVG Export Plug-In . SVG Version: 6.00 Build 0)  -->
<svg version="1.1" id="Capa_1" xmlns="http://www.w3.org/2000/svg" xmlns:xlink="http://www.w3.org/1999/xlink" x="0px" y="0px"
	 viewBox="0 0 512 512" style="enable-background:new 0 0 512 512;" xml:space="preserve">
<style type="text/css">
	.st0{fill:#94BC20;}
	.st1{fill:#478790;}
</style>
<path class="st0" d="M312.2,257.3c-5.3,15.1-11.5,29.9-18.6,44.2c-12.2,24.7-30.8,55.5-57.5,83.8c28.5,14.8,63.6,3.7,78.4-24.7
	c5.4-10.4,7.5-22.2,6.1-33.8L312.2,257.3z"/>
<path class="st1" d="M100,41.8L46.1,94.3L68,116.2l53.8-52.5L100,41.8z"/>
<path class="st1" d="M89,117.7l12.3,13.2l30.5-29.6L119.4,88L89,117.7z"/>
<path class="st0" d="M301.3,240l-69.7,44.7c-22.8,14.6-32.5,43.1-23.3,68.6c0.4,1.2,0.9,2.5,1.5,3.7c3.1,7.2,7.7,13.7,13.5,19
	c26.1-27.2,44.3-57.2,56.1-81.2C288,277.2,295.4,258.9,301.3,240L301.3,240z"/>
<path class="st1" d="M440.8,0H269.6c-13.9,0-25.1,11.2-25.1,25.1V68c0,4.4-3.5,7.9-7.9,7.9h-46c-6.5,0-12.8,2.5-17.4,7.1L77,176.5
	c-4.9,4.7-7.7,11.3-7.7,18.1v259.3c0,32.1,26,58.1,58.1,58.1h280.4c32.1,0,58.1-26,58.1-58.1V25.1C465.8,11.2,454.6,0,440.8,0z
	 M330.6,363.4c-8.2,18.5-23.6,32.9-42.6,39.8c-8,2.9-16.4,4.4-24.9,4.4c-13.6,0-26.9-3.7-38.4-10.8c-12.5,11.9-26.1,22.5-40.7,31.7
	c-3.7,2.3-8.5,1.3-10.9-2.4c-2.3-3.7-1.3-8.5,2.4-10.9c0,0,0.1,0,0.1-0.1c13-8.2,25.2-17.6,36.4-28.1c-7.1-6.7-12.8-14.8-16.7-23.7
	c-0.7-1.5-1.3-3.1-1.9-4.7c-11.7-32.4,0.6-68.6,29.6-87.2l88.5-56.7c3.7-2.3,8.5-1.3,10.9,2.4c0.6,1,1,2.1,1.2,3.3l12.7,104.4
	C337.9,338,335.9,351.3,330.6,363.4L330.6,363.4z M356.3,91h-70.2c-4.4,0-7.9-3.5-7.9-7.9V48.2c0-13.5,10.9-24.4,24.4-24.4h105.2
	c4.4,0,7.9,3.5,7.9,7.9C415.6,64.4,389.1,91,356.3,91L356.3,91z"/>
<path class="st1" d="M294,48.2v27.1h62.3c21,0,39-15,42.8-35.7h-96.6C297.9,39.6,294,43.4,294,48.2L294,48.2z"/>
</svg>
