<?xml version="1.0" encoding="utf-8"?>
<!-- Generator: Adobe Illustrator 23.0.4, SVG Export Plug-In . SVG Version: 6.00 Build 0)  -->
<svg version="1.1" id="Capa_1" xmlns="http://www.w3.org/2000/svg" xmlns:xlink="http://www.w3.org/1999/xlink" x="0px" y="0px"
	 viewBox="0 0 512 512" style="enable-background:new 0 0 512 512;" xml:space="preserve">
<style type="text/css">
	.st0{fill:#478790;}
</style>
<path class="st0" d="M451,150.9h61v30h-61V150.9z"/>
<path class="st0" d="M0,150.9h61v30H0V150.9z"/>
<path class="st0" d="M484.3,280.5l-52-30l-15,26l52,30L484.3,280.5z"/>
<path class="st0" d="M79.6,81.4l15-26l-52-30l-15,26L79.6,81.4z"/>
<path class="st0" d="M469.3,25.5l-52,30l15,26l52-30L469.3,25.5z"/>
<path class="st0" d="M42.7,306.4l52-30l-15-26l-52,30L42.7,306.4z"/>
<path class="st0" d="M361,392.9v-30H151v30h30v30h-30v30h210v-30h-30v-30H361z"/>
<path class="st0" d="M211,482.9h90v30h-90V482.9z"/>
<path class="st0" d="M421,165.9C421,75.1,347.7,1.1,256,1C163.8,0.9,91.9,74.5,91.1,163.8c-0.6,62.4,33.8,120.3,89.9,149v20.2h150
	v-20.2C386,284.7,421,228.1,421,165.9z M237.7,250.3l-23.4-18.8l40.5-50.6h-60l79.5-99.4l23.4,18.8l-40.5,50.6h60L237.7,250.3z"/>
</svg>
