<?xml version="1.0" encoding="utf-8"?>
<!-- Generator: Adobe Illustrator 23.0.4, SVG Export Plug-In . SVG Version: 6.00 Build 0)  -->
<svg version="1.1" id="Capa_1" xmlns="http://www.w3.org/2000/svg" xmlns:xlink="http://www.w3.org/1999/xlink" x="0px" y="0px"
	 viewBox="0 0 512 512" style="enable-background:new 0 0 512 512;" xml:space="preserve">
<style type="text/css">
	.st0{fill:#478790;}
</style>
<g>
	<g>
		<polygon class="st0" points="464.9,200.7 311.1,46.9 297.8,33.6 286.1,45.3 299.3,58.7 453.1,212.5 466.3,225.6 478.1,213.9 		"/>
	</g>
</g>
<g>
	<g>
		<polygon class="st0" points="442.6,223 288.8,69.2 275.6,55.9 263.8,67.6 277,80.9 430.8,234.8 444,247.9 455.8,236.2 		"/>
	</g>
</g>
<g>
	<g>
		<path class="st0" d="M420.4,245.8L266.5,91.4l-13.3-13.3l-46.5,46.5c-7.4,7.1-7.7,18.9-0.6,26.3c0.2,0.2,0.4,0.4,0.6,0.6l1.1,1.1
			l1.4,0.7c0.6,0,57.2,27.9,89.3,59.7c33.6,34,59.8,88.8,59.8,89.7l0.7,1.5l1.2,1.2c7.1,7.4,18.9,7.7,26.3,0.6
			c0.2-0.2,0.4-0.4,0.6-0.6l46.5-46.5L420.4,245.8z"/>
	</g>
</g>
<g>
	<g>
		<path class="st0" d="M506,159.1L352.6,5.4c-7.5-7.2-19.3-7.2-26.8,0l-17.4,17.7l13.4,13.4l153.7,153.7l13,13.2l17.5-17.5
			C513.3,178.5,513.3,166.5,506,159.1z"/>
	</g>
</g>
<g>
	<g>
		<path class="st0" d="M120.5,391.1c-3.6-3.6-8.4-5.6-13.5-5.6c-10.6,0-19.2,8.7-19.2,19.3c0,5.1,2,9.9,5.6,13.5
			c7.6,7.3,19.5,7.3,27.1,0C128.1,410.7,128.1,398.5,120.5,391.1z"/>
	</g>
</g>
<g>
	<g>
		<path class="st0" d="M303.5,246.6c-10-14.3-22.5-26.8-36.9-36.8l0,0c-3.5-2.5-8.3-2.1-11.5,0.7c-0.9,0.8-93.4,83.6-125.7,108.9
			c-16.7,14.8-40,19.6-61.1,12.6c-3.3-1-6.9-0.1-9.3,2.4L3.3,390.2c-3.6,3.6-3.6,9.5,0,13.1l52.4,52.4l0.7,0.6l0.7,0.7l52.4,52.4
			c3.6,3.6,9.5,3.6,13.1,0l55.7-55.7c2.5-2.4,3.4-6,2.4-9.3c-6.9-21.2-2.1-44.4,12.6-61.1c25.7-32,108.6-124.4,109.3-125.3
			C305.4,254.7,305.8,250.1,303.5,246.6z M133.6,430.6c-7,7.2-16.6,11.3-26.6,11.4c-10,0.1-19.6-3.7-26.8-10.7
			C65.3,416.8,65,392.9,79.5,378c14.5-14.9,38.4-15.3,53.3-0.7C147.8,391.8,148.1,415.7,133.6,430.6z"/>
	</g>
</g>
</svg>
