<?xml version="1.0" encoding="utf-8"?>
<!-- Generator: Adobe Illustrator 23.0.4, SVG Export Plug-In . SVG Version: 6.00 Build 0)  -->
<svg version="1.1" id="Capa_1" xmlns="http://www.w3.org/2000/svg" xmlns:xlink="http://www.w3.org/1999/xlink" x="0px" y="0px"
	 viewBox="0 0 512 512" style="enable-background:new 0 0 512 512;" xml:space="preserve">
<style type="text/css">
	.st0{fill:#478790;}
</style>
<g>
	<g>
		<path class="st0" d="M252.7,188c4.8,1.9,9.5-2.7,7.9-7.7c-11-33.8-50.6-46.4-87.5-16.4c-19.4,15.8-26.7,19.1-26.9,19.2
			c12.8,12.8,27.4,55.7,59.3,60.4c35.1,6.4,66.2-28.2,40.8-44c-16.7-10.4-36.4-16.4-57.5-16.4C210.9,178.1,233,180.3,252.7,188z"/>
	</g>
</g>
<g>
	<g>
		<path class="st0" d="M411.7,163.9c-63.7-51.7-104.3,29.8-79,21.8c17.9-5.7,37.5-7,57.2-2.6c-33.3,0-64,15.3-84.5,40.1
			c1.7-39,4.2-63.5,7.2-81.7c17-0.6,39.7-14.3,52.1-38.4c21.5-38.4,11.5-77.8,8.3-102.7c-16.8,16.3-90-2.8-119.1,47
			c-12.8,22-9.1,48.7,4.4,68.3c4.3,6.2,14.5,3.2,14.8-4.3c1.3-32.7,17.6-57.4,47.9-71.1c-13.6,17.7-22.6,37.4-27.2,57.8
			c-7.2,31.8-14.7,52.7-17.4,154.1c-0.3,10.3,8.1,18.8,18.3,18.7c7.4-0.1,13.8-4.8,16.7-11.7c4.4-10.5,11.4-21.3,23-31.2
			c11,12.1,27.7,18.6,44.9,15.4c31.8-4.7,46.6-47.7,59.3-60.4C438.4,183,431.1,179.7,411.7,163.9z"/>
	</g>
</g>
<g>
	<g>
		<path class="st0" d="M505.3,290.3c-19.9-13.5-41.6-3.9-51.5,1.9L329,383.5l-73.1,0l-18.3-18.3h67.1c20.2,0,42.8-13.2,42.8-36.6
			c0-24.9-22.6-36.6-42.8-36.6h-25.2c-18.7,0-40.5,1.7-55.9-6.6c-14.6-7.4-31.5-11.7-49.5-11.7c-30.2,0-57.2,12-75.7,31L0,401.8
			l109.7,109.7l36.6-54.8h172.7c18.4,0,36.2-6.8,50-19l137.7-122.3C514.2,308.5,513.8,296,505.3,290.3z"/>
	</g>
</g>
</svg>
