<?xml version="1.0" encoding="utf-8"?>
<!-- Generator: Adobe Illustrator 23.0.4, SVG Export Plug-In . SVG Version: 6.00 Build 0)  -->
<svg version="1.1" id="Capa_1" xmlns="http://www.w3.org/2000/svg" xmlns:xlink="http://www.w3.org/1999/xlink" x="0px" y="0px"
	 viewBox="0 0 512 512" style="enable-background:new 0 0 512 512;" xml:space="preserve">
<style type="text/css">
	.st0{fill:#478790;}
</style>
<g>
	<path class="st0" d="M463,6.3c-4.2-4.2-9.2-6.3-15-6.3H64c-5.8,0-10.8,2.1-15,6.3c-4.2,4.2-6.3,9.2-6.3,15v256
		c0,19.1,3.7,38.1,11.2,56.8c7.4,18.8,16.7,35.4,27.7,50c11,14.6,24.1,28.7,39.3,42.5c15.2,13.8,29.3,25.2,42.2,34.3
		c12.9,9.1,26.3,17.7,40.3,25.8c14,8.1,23.9,13.6,29.8,16.5c5.9,2.9,10.6,5.1,14.2,6.7c2.7,1.3,5.6,2,8.7,2c3.1,0,6-0.7,8.7-2
		c3.6-1.6,8.3-3.8,14.2-6.7c5.9-2.9,15.8-8.4,29.8-16.5c14-8.1,27.4-16.7,40.3-25.8c12.9-9.1,26.9-20.6,42.2-34.3
		c15.2-13.8,28.3-27.9,39.3-42.5c11-14.6,20.2-31.2,27.7-50c7.4-18.8,11.2-37.7,11.2-56.8v-256C469.3,15.5,467.2,10.6,463,6.3z
		 M405.3,277.3c0,39.1-26.1,79.1-78.3,120c-20.9,16.4-44.6,31.7-71,45.7V64h149.3V277.3z"/>
</g>
</svg>
