<?xml version="1.0" encoding="utf-8"?>
<!-- Generator: Adobe Illustrator 23.0.4, SVG Export Plug-In . SVG Version: 6.00 Build 0)  -->
<svg version="1.1" id="Capa_1" xmlns="http://www.w3.org/2000/svg" xmlns:xlink="http://www.w3.org/1999/xlink" x="0px" y="0px"
	 viewBox="0 0 512 512" style="enable-background:new 0 0 512 512;" xml:space="preserve">
<style type="text/css">
	.st0{fill:#478790;}
</style>
<path class="st0" d="M256,512c41.9,0,165-151.5,165-256c0-121-94.2-135-165-135S91,135,91,256C91,360.5,214.1,512,256,512z M271,421
	c0,8.3-6.7,15-15,15s-15-6.7-15-15v-30c0-8.3,6.7-15,15-15c8.3,0,15,6.7,15,15V421z M331,241c0-8.3,6.7-15,15-15s15,6.7,15,15v30
	c0,8.3-6.7,15-15,15s-15-6.7-15-15V241z M316,316c8.3,0,15,6.7,15,15v30c0,8.3-6.7,15-15,15s-15-6.7-15-15v-30
	C301,322.7,307.7,316,316,316z M271,211c0-8.3,6.7-15,15-15s15,6.7,15,15v30c0,8.3-6.7,15-15,15s-15-6.7-15-15V211z M256,286
	c8.3,0,15,6.7,15,15v30c0,8.3-6.7,15-15,15s-15-6.7-15-15v-30C241,292.7,247.7,286,256,286z M211,211c0-8.3,6.7-15,15-15
	s15,6.7,15,15v30c0,8.3-6.7,15-15,15s-15-6.7-15-15V211z M166,286c-8.3,0-15-6.7-15-15v-30c0-8.3,6.7-15,15-15s15,6.7,15,15v30
	C181,279.3,174.3,286,166,286z M181,361v-30c0-8.3,6.7-15,15-15s15,6.7,15,15v30c0,8.3-6.7,15-15,15S181,369.3,181,361z"/>
<path class="st0" d="M256,91c41.6,0,75.8,6.4,104.2,17.8c6.4-11.3,10.3-24,10.4-37.8c0-8.3-6.7-15-15-15c-9.2,0-18.4,0.9-27.7,2.7
	c0.7-15.4-0.9-32.7-4.9-47.6c-1-3.8-3.5-7.1-7-9.1c-3.5-2-7.6-2.5-11.4-1.5c-17.5,4.7-33.8,13.4-48.6,24
	c-14.8-10.6-31.1-19.3-48.6-24c-3.8-1-7.9-0.5-11.4,1.5s-6,5.3-7,9.1c-4,14.9-5.6,32.2-4.9,47.6c-9.3-1.8-18.6-2.7-27.7-2.7
	c-4,0-7.8,1.9-10.6,4.8s-4.4,7-4.4,11c0.1,13.5,4,26,10.3,37.1C180.1,97.4,214.4,91,256,91L256,91z"/>
</svg>
