<?xml version="1.0" encoding="utf-8"?>
<!-- Generator: Adobe Illustrator 23.0.4, SVG Export Plug-In . SVG Version: 6.00 Build 0)  -->
<svg version="1.1" id="Layer_1" xmlns="http://www.w3.org/2000/svg" xmlns:xlink="http://www.w3.org/1999/xlink" x="0px" y="0px"
	 viewBox="0 0 256 256" style="enable-background:new 0 0 256 256;" xml:space="preserve">
<style type="text/css">
	.st0{fill:none;stroke:#478790;stroke-width:6;stroke-miterlimit:10;}
	.st1{fill:none;stroke:#478790;stroke-width:6;stroke-linecap:round;stroke-miterlimit:10;}
	.st2{fill:none;stroke:#478790;stroke-width:5;stroke-linecap:round;stroke-linejoin:round;}
</style>
<title></title>
<path class="st0" d="M193.1,129.1c-0.3,26-16.1,49.3-40.2,59.2c-6.5,2.7-10.7,9-10.6,16l0,0c0,3.7-3,6.7-6.7,6.7h-14.2
	c-3.7,0-6.7-3-6.7-6.7l0,0c0-7-4.2-13.3-10.6-16c-33-13.5-48.9-51.2-35.4-84.2s51.2-48.9,84.2-35.4
	C177.4,78.6,193.3,102.6,193.1,129.1L193.1,129.1z"/>
<path class="st0" d="M120.4,219.8h16.1c2.5,0,4.5,2,4.5,4.5v2.8c0,2.5-2,4.5-4.5,4.5h-16.1c-2.5,0-4.5-2-4.5-4.5v-2.8
	C115.9,221.8,117.9,219.8,120.4,219.8z"/>
<line class="st1" x1="128.5" y1="49.7" x2="128.5" y2="24.5"/>
<line class="st1" x1="181.6" y1="71.7" x2="199.4" y2="53.9"/>
<line class="st1" x1="55.7" y1="199.4" x2="73.5" y2="181.6"/>
<line class="st1" x1="205.4" y1="124.8" x2="230.6" y2="124.8"/>
<line class="st1" x1="25.4" y1="124.8" x2="50.6" y2="124.8"/>
<line class="st1" x1="183.4" y1="179.7" x2="201.2" y2="197.5"/>
<line class="st1" x1="57.6" y1="53.9" x2="75.3" y2="71.7"/>
<polygon class="st2" points="156.6,129.2 133.3,129.2 133.6,84.3 100.9,135.2 124.2,135.2 123.9,179.7 "/>
</svg>
