<?xml version="1.0" encoding="utf-8"?>
<!-- Generator: Adobe Illustrator 23.0.4, SVG Export Plug-In . SVG Version: 6.00 Build 0)  -->
<svg version="1.1" id="Layer_1" xmlns="http://www.w3.org/2000/svg" xmlns:xlink="http://www.w3.org/1999/xlink" x="0px" y="0px"
	 viewBox="0 0 256 256" style="enable-background:new 0 0 256 256;" xml:space="preserve">
<style type="text/css">
	.st0{fill:none;stroke:#478790;stroke-width:5;stroke-linecap:round;stroke-linejoin:round;}
	.st1{fill:none;stroke:#478790;stroke-width:6;stroke-linecap:round;stroke-miterlimit:10;}
</style>
<title></title>
<polygon class="st0" points="155.3,115.8 132.4,115.8 132.8,71.7 100.7,121.7 123.6,121.7 123.2,165.3 "/>
<path class="st1" d="M138.3,48L204,162.5c3.3,5.7,1.3,12.9-4.4,16.2c-1.8,1-3.8,1.6-5.9,1.6H62.2c-6.5,0-11.8-5.3-11.8-11.9
	c0-2.1,0.6-4.1,1.6-5.9L117.7,48c3.3-5.7,10.5-7.6,16.1-4.4C135.7,44.7,137.2,46.2,138.3,48z"/>
<circle class="st1" cx="128" cy="128" r="107.7"/>
</svg>
