<?xml version="1.0" encoding="utf-8"?>
<!-- Generator: Adobe Illustrator 23.0.4, SVG Export Plug-In . SVG Version: 6.00 Build 0)  -->
<svg version="1.1" id="Capa_1" xmlns="http://www.w3.org/2000/svg" xmlns:xlink="http://www.w3.org/1999/xlink" x="0px" y="0px"
	 viewBox="0 0 512 512" style="enable-background:new 0 0 512 512;" xml:space="preserve">
<style type="text/css">
	.st0{fill:#478790;}
</style>
<g>
	<path class="st0" d="M493.6,94.6c-7.4-1.9-13.8,2.6-16.2,9.5c-0.5,1.5-1.1,3-1.6,4.5c-0.2,0.6-0.5,1.2-0.7,1.8
		c-1.1,2.6-2.3,5.2-3.5,7.8c-5.8,12.3-12.8,24-20.8,35c-0.7,0.9-1.3,1.8-2,2.8c-0.1,0.1-0.1,0.2-0.2,0.3c-1,1.2-1.9,2.4-2.9,3.6
		c-2.2,2.7-4.4,5.3-6.7,7.9c-4.8,5.3-9.8,10.4-15.1,15.1c-1.5,1.3-3,2.6-4.5,3.8c-0.6,0.5-3.2,2.5-3.1,2.5c-2.2,1.6-4.5,3.2-6.8,4.7
		c-4.8,3.1-9.8,5.9-15.1,8.2c4.2-3,8.3-6.4,12.2-10.3c31.4-31.4,33-77.3,33-82.4l0.2-16.2c0.1-8.9-7-16.1-15.9-15.9
		c-8.9,0.1-16.2,0.2-16.2,0.2c-4.6,0.1-42.1,1.3-72.5,24.4c0.5-3.7,0.8-7.4,1.1-11.1c2-25.9,0.3-51.8-2.8-77.5
		C332.6,6.1,328.1,0,320.2,0c-6.6,0-14.1,6.1-13.2,13.2c3,25,4.9,50.3,3,75.4c-0.3,3.5-0.6,7-1,10.5c0,0.2-0.1,0.4-0.1,0.6
		c0,0.1,0,0.1,0,0.2c-0.1,0.7-0.2,1.4-0.3,2.1c-0.2,1.4-0.4,2.7-0.7,4.1c-1,6.1-2.3,12.1-4,18c-0.9,3.2-1.9,6.4-3.1,9.6
		c0,0.1-0.1,0.3-0.2,0.5c-9.4-20.3-22.1-33.8-24.3-36.1L265,86.6c-6.2-6.4-16.3-6.4-22.6,0c-6.2,6.4-11.3,11.6-11.3,11.6
		c-3.2,3.3-29.3,31.3-34.1,69.6l-8.9-9.2c-4.9-5.1-14-4-20.2,2.4c-6.2,6.4-11.3,11.6-11.3,11.6c-3.2,3.3-29.3,31.3-34.1,69.7
		l-8.9-9.1c-4.9-5-13.9-3.9-20.1,2.5c-6.2,6.4-11.2,11.6-11.2,11.6c-3.6,3.7-34.7,37.4-34.7,81.9c0,44.5,31.8,78.4,35.4,82.1
		l2.4,2.4l-70.1,70.2c-7.8,7.8-9.3,18.8-3.5,24.6c5.8,5.8,16.8,4.2,24.6-3.5l70.2-70.2c4.3,4.1,37.4,34.8,81.5,34.8
		c44.5,0,78-31.3,81.7-34.9l11.6-11.3c6.4-6.2,7.5-15.3,2.4-20.2c-5.1-4.9-9.2-8.9-9.2-8.9c38.4-4.8,66.3-30.8,69.6-34.1L356,349
		c6.4-6.2,7.5-15.3,2.4-20.2c-5.1-4.9-9.2-8.9-9.2-8.9c38.4-4.8,66.3-30.8,69.6-34.1l11.6-11.3c6.4-6.2,6.4-16.3,0-22.6
		c-6.4-6.2-11.6-11.3-11.6-11.3c-1.4-1.4-7.4-7-16.7-13.3c22.5-8.9,42.1-25.4,57.7-43.4c18.6-21.5,33.8-46.3,43.1-73.2
		C505.4,103.9,500.1,96.3,493.6,94.6z M347.5,132.7c23.3-23.3,60.6-23.8,60.6-23.8s-0.5,37.3-23.8,60.6
		c-23.3,23.3-60.6,23.8-60.6,23.8S324.2,156.1,347.5,132.7z M253.7,120.1c0,0,26,26.7,26,59.7c0,33-26,59.7-26,59.7
		s-26-26.7-26-59.7C227.7,146.8,253.7,120.1,253.7,120.1z M179.3,194.6c0,0,26,26.7,26,59.7s-26,59.7-26,59.7s-26-26.7-26-59.7
		C153.3,221.3,179.3,194.6,179.3,194.6z M104.8,388.5c0,0-26-26.7-26-59.7c0-33,26-59.7,26-59.7s26,26.7,26,59.7
		C130.8,361.7,104.8,388.5,104.8,388.5z M188.2,438.2c-30.6,0-55.9-22.5-59.3-25.6l5.4-5.4c9.5-7.6,30.1-21,53.9-21
		c33,0,59.7,26,59.7,26S221.2,438.2,188.2,438.2z M262.7,363.7c-30.6,0-55.9-22.5-59.3-25.6l5.4-5.4c9.5-7.6,30.1-21,53.9-21
		c33,0,59.7,26,59.7,26S295.7,363.7,262.7,363.7z M337.2,289.2c-30.6,0-55.9-22.5-59.3-25.6l0.7-0.7l-0.3-0.3
		c5.4-4.9,29.4-25.2,58.9-25.2c33,0,59.8,25.9,59.8,25.9S370.1,289.2,337.2,289.2z"/>
</g>
</svg>
